<svg xmlns="http://www.w3.org/2000/svg" viewBox="0 0 195.54 47.43"><defs><style>.cls-1{fill:#6e2375;}.cls-2{fill:#e300fa;}</style></defs><g id="Layer_2" data-name="Layer 2"><g id="Layer_1-2" data-name="Layer 1"><path class="cls-1" d="M14.15,20a3.65,3.65,0,0,1-3.54,2.71h-.28A3.9,3.9,0,0,1,6.65,20L.17,4.76A3,3,0,0,1,2.05,1a3.14,3.14,0,0,1,4,1.84l4.38,11.59L14.8,2.79A3.12,3.12,0,0,1,18.8,1a3,3,0,0,1,1.88,3.81Z"/><path class="cls-1" d="M38.57,21a13.54,13.54,0,0,1-7.41,1.94A10.91,10.91,0,0,1,19.93,11.71C19.93,5,25,.62,31.16.62s11,4.51,11,11.27a2,2,0,0,1-2,2H26.33c.32,2.49,3,3.55,5.29,3.55a5.85,5.85,0,0,0,3.73-1,3,3,0,0,1,4,.33A2.78,2.78,0,0,1,38.57,21ZM35.71,9.87A4.18,4.18,0,0,0,31.21,6a4.51,4.51,0,0,0-4.79,3.91Z"/><path class="cls-1" d="M82.62,3.66A3.15,3.15,0,0,1,85.84.81a3,3,0,0,1,3.22,2.85V19.9a3,3,0,0,1-3.22,2.85,3.15,3.15,0,0,1-3.22-2.85v-.41a7.63,7.63,0,0,1-6.44,3.45c-5.47,0-10.44-4.05-10.44-11.18S70.71.62,76.18.62a8,8,0,0,1,6.44,3.45Zm-5.2,13.57a5.43,5.43,0,0,0,0-10.86c-3.22,0-5.06,2.58-5.06,5.43S74.2,17.23,77.42,17.23Z"/><path class="cls-1" d="M96.88,4.17A7.16,7.16,0,0,1,103.09.58c4.83,0,7.91,3,7.91,9.11V19.9a3,3,0,0,1-3.22,2.85,3.15,3.15,0,0,1-3.22-2.85V11.07c0-2.86-1.56-4.28-3.72-4.28s-4,1.1-4,4.37V19.9a3,3,0,0,1-3.22,2.85,3.15,3.15,0,0,1-3.22-2.85V3.66A3.15,3.15,0,0,1,93.66.81a3,3,0,0,1,3.22,2.85Z"/><path class="cls-1" d="M2.05,38.16a2.9,2.9,0,0,1,3.45.78,5.44,5.44,0,0,0,4.05,1.89c1.43,0,2.76-.23,2.76-1.33,0-.93-.55-1.25-2.12-1.75l-2.43-.88c-6.44-2.16-6.4-5.2-6.4-7.17,0-3.18,3.82-6.12,8.33-6.12,3.08,0,6.26,1,7.73,3.54a2.31,2.31,0,0,1-.55,3.27,3.46,3.46,0,0,1-4.1-.51,4.21,4.21,0,0,0-2.58-1c-1.37,0-2.34.46-2.34,1.29s.55,1.11,1.84,1.52L13,32.82c5.19,1.71,5.84,5.06,5.84,6.44C18.8,43.82,14,46,9.51,46,6.05,46,2,44.56.9,41.38A2.58,2.58,0,0,1,2.05,38.16Z"/><path class="cls-1" d="M18.92,34.71c0-6.76,5-11.09,11.27-11.09S41.51,28,41.51,34.71A10.93,10.93,0,0,1,30.19,45.94,10.89,10.89,0,0,1,18.92,34.71Zm16.15,0a4.86,4.86,0,1,0-9.71,0,4.86,4.86,0,1,0,9.71,0Z"/><path class="cls-1" d="M75.64,42.9a3,3,0,0,1-3.22,2.85A3.15,3.15,0,0,1,69.2,42.9V34.07c0-2.81-1.7-4.28-3.59-4.28S62,31,62,34.16V42.9a3,3,0,0,1-3.22,2.85,3.14,3.14,0,0,1-3.22-2.85v-9c0-2.72-1.7-4.14-3.54-4.14s-3.73,1.1-3.73,4.37V42.9a3,3,0,0,1-3.22,2.85,3.15,3.15,0,0,1-3.22-2.85V26.66a3.14,3.14,0,0,1,3.22-2.85,3,3,0,0,1,3.22,2.85v.51a6.14,6.14,0,0,1,5.61-3.55c3.41,0,5.66,1.11,7.09,4.05a6.92,6.92,0,0,1,6.25-4.09c5.11,0,8.38,3.26,8.42,9.75Z"/><path class="cls-1" d="M94.41,44A13.52,13.52,0,0,1,87,45.94,10.91,10.91,0,0,1,75.78,34.71C75.78,28,80.84,23.62,87,23.62s11,4.51,11,11.27a2,2,0,0,1-2,2H82.17c.32,2.49,3,3.55,5.29,3.55a5.83,5.83,0,0,0,3.73-1,3,3,0,0,1,4,.32A2.8,2.8,0,0,1,94.41,44ZM91.56,32.87A4.18,4.18,0,0,0,87.05,29a4.52,4.52,0,0,0-4.79,3.91Z"/><path class="cls-1" d="M99.7,24h8.88a2.43,2.43,0,0,1,2.3,2.53,2.49,2.49,0,0,1-2.3,2.53h-2.44V42.9a3,3,0,0,1-3.22,2.85A3.14,3.14,0,0,1,99.7,42.9V29.1H98a2.49,2.49,0,0,1-2.3-2.53A2.42,2.42,0,0,1,98,24Z"/><path class="cls-1" d="M117.44,42.9a3,3,0,0,1-3.22,2.85A3.15,3.15,0,0,1,111,42.9V26.66a3.14,3.14,0,0,1,3.22-2.85,3,3,0,0,1,3.22,2.85Z"/><path class="cls-1" d="M152.64,42.9a3.06,3.06,0,0,1-3.23,2.85,3.15,3.15,0,0,1-3.22-2.85V34.07c0-2.81-1.7-4.28-3.58-4.28-2,0-3.64,1.24-3.64,4.37V42.9a3,3,0,0,1-3.22,2.85,3.15,3.15,0,0,1-3.22-2.85v-9c0-2.72-1.7-4.14-3.54-4.14s-3.73,1.1-3.73,4.37V42.9A3,3,0,0,1,122,45.75a3.15,3.15,0,0,1-3.22-2.85V26.66A3.14,3.14,0,0,1,122,23.81a3,3,0,0,1,3.22,2.85v.51a6.14,6.14,0,0,1,5.61-3.55c3.41,0,5.66,1.11,7.09,4.05a6.93,6.93,0,0,1,6.26-4.09c5.1,0,8.37,3.26,8.42,9.75Z"/><path class="cls-1" d="M171.4,44A13.5,13.5,0,0,1,164,45.94a10.91,10.91,0,0,1-11.22-11.23c0-6.76,5.06-11.09,11.22-11.09s11,4.51,11,11.27a2,2,0,0,1-2,2H159.16c.33,2.49,3,3.55,5.29,3.55a5.83,5.83,0,0,0,3.73-1,3,3,0,0,1,4,.32A2.78,2.78,0,0,1,171.4,44Zm-2.85-11.13A4.18,4.18,0,0,0,164,29a4.5,4.5,0,0,0-4.78,3.91Z"/><path class="cls-1" d="M176,38.16a2.9,2.9,0,0,1,3.45.78,5.44,5.44,0,0,0,4.05,1.89c1.42,0,2.76-.23,2.76-1.33,0-.93-.56-1.25-2.12-1.75l-2.44-.88c-6.44-2.16-6.39-5.2-6.39-7.17,0-3.18,3.81-6.12,8.32-6.12,3.09,0,6.26,1,7.73,3.54a2.3,2.3,0,0,1-.55,3.27,3.44,3.44,0,0,1-4.09-.51,4.21,4.21,0,0,0-2.58-1c-1.38,0-2.35.46-2.35,1.29s.56,1.11,1.84,1.52l3.27,1.1c5.2,1.71,5.84,5.06,5.84,6.44,0,4.56-4.78,6.72-9.29,6.72-3.45,0-7.5-1.42-8.6-4.6A2.58,2.58,0,0,1,176,38.16Z"/><path class="cls-1" d="M54.24,23.44A11.25,11.25,0,0,1,42.92,12.15,12,12,0,0,1,53.94,0a11.34,11.34,0,0,1,7.79,2.4c.87.52.11,3.15-.79,4a2.31,2.31,0,0,1-2.82.16,6.49,6.49,0,0,0-3.88-1.18c-3.72,0-5.92,3-5.92,6.76s2.25,6.14,6,6.14c2.53,0,4.44-.5,5.4-2.9H55.33a2,2,0,0,1-1.89-1.89c0-1.09.85-2.44,1.88-2.44l8,.18c1.09,0,1.73.91,1.61,2.1C64.18,20.33,60.11,23.44,54.24,23.44Z"/><path class="cls-2" d="M17,21.48a3.65,3.65,0,0,1-3.54,2.72h-.28a3.9,3.9,0,0,1-3.68-2.72L3,6.21A3,3,0,0,1,4.86,2.39a3.16,3.16,0,0,1,4,1.84l4.37,11.6L17.6,4.23a3.15,3.15,0,0,1,4-1.84,3,3,0,0,1,1.88,3.82Z"/><path class="cls-2" d="M41.38,22.45A13.53,13.53,0,0,1,34,24.38,10.9,10.9,0,0,1,22.74,13.16C22.74,6.39,27.8,2.07,34,2.07S45,6.58,45,13.34a2,2,0,0,1-2,2H29.14c.32,2.48,3,3.54,5.29,3.54a5.84,5.84,0,0,0,3.73-1,3,3,0,0,1,4,.32A2.79,2.79,0,0,1,41.38,22.45ZM38.52,11.32A4.17,4.17,0,0,0,34,7.41a4.5,4.5,0,0,0-4.78,3.91Z"/><path class="cls-2" d="M85.43,5.11a3.15,3.15,0,0,1,3.22-2.86,3.05,3.05,0,0,1,3.22,2.86V21.35a3,3,0,0,1-3.22,2.85,3.15,3.15,0,0,1-3.22-2.85v-.42A7.6,7.6,0,0,1,79,24.38c-5.48,0-10.44-4.05-10.44-11.18S73.51,2.07,79,2.07a8,8,0,0,1,6.44,3.45Zm-5.2,13.57a5.43,5.43,0,0,0,0-10.86c-3.22,0-5.06,2.58-5.06,5.43S77,18.68,80.23,18.68Z"/><path class="cls-2" d="M99.69,5.61A7.18,7.18,0,0,1,105.9,2c4.83,0,7.91,3,7.91,9.11V21.35a3,3,0,0,1-3.22,2.85,3.15,3.15,0,0,1-3.22-2.85V12.51c0-2.85-1.56-4.28-3.72-4.28s-4,1.11-4,4.38v8.74a3,3,0,0,1-3.22,2.85,3.14,3.14,0,0,1-3.22-2.85V5.11a3.14,3.14,0,0,1,3.22-2.86,3.05,3.05,0,0,1,3.22,2.86Z"/><path class="cls-2" d="M4.86,39.61a2.88,2.88,0,0,1,3.45.78,5.44,5.44,0,0,0,4,1.89c1.43,0,2.76-.23,2.76-1.34,0-.92-.55-1.24-2.12-1.75l-2.43-.87c-6.44-2.16-6.4-5.2-6.4-7.18C4.17,28,8,25,12.5,25c3.08,0,6.26,1,7.73,3.55a2.29,2.29,0,0,1-.55,3.26,3.44,3.44,0,0,1-4.1-.5,4.21,4.21,0,0,0-2.58-1c-1.38,0-2.34.46-2.34,1.29s.55,1.1,1.84,1.52l3.26,1.1c5.2,1.7,5.85,5.06,5.85,6.44,0,4.56-4.79,6.72-9.3,6.72-3.45,0-7.49-1.43-8.6-4.6A2.57,2.57,0,0,1,4.86,39.61Z"/><path class="cls-2" d="M21.73,36.16c0-6.77,5-11.09,11.27-11.09s11.32,4.32,11.32,11.09S39.26,47.38,33,47.38A10.89,10.89,0,0,1,21.73,36.16Zm16.15,0a4.86,4.86,0,1,0-9.71,0,4.86,4.86,0,1,0,9.71,0Z"/><path class="cls-2" d="M78.45,44.35a3,3,0,0,1-3.22,2.85A3.15,3.15,0,0,1,72,44.35V35.51c0-2.8-1.7-4.28-3.59-4.28s-3.63,1.25-3.63,4.37v8.75a3,3,0,0,1-3.22,2.85,3.14,3.14,0,0,1-3.22-2.85v-9c0-2.71-1.7-4.14-3.54-4.14s-3.73,1.11-3.73,4.37v8.75a3,3,0,0,1-3.22,2.85,3.14,3.14,0,0,1-3.22-2.85V28.11a3.14,3.14,0,0,1,3.22-2.86,3.05,3.05,0,0,1,3.22,2.86v.5a6.15,6.15,0,0,1,5.61-3.54c3.41,0,5.66,1.1,7.09,4.05A6.91,6.91,0,0,1,70,25c5.11,0,8.38,3.27,8.42,9.76Z"/><path class="cls-2" d="M97.22,45.45a13.51,13.51,0,0,1-7.41,1.93A10.9,10.9,0,0,1,78.59,36.16c0-6.77,5.06-11.09,11.22-11.09s11,4.51,11,11.27a2,2,0,0,1-2,2H85c.32,2.48,3,3.54,5.29,3.54a5.84,5.84,0,0,0,3.73-1,3,3,0,0,1,4,.32A2.8,2.8,0,0,1,97.22,45.45ZM94.37,34.32a4.18,4.18,0,0,0-4.51-3.91,4.51,4.51,0,0,0-4.79,3.91Z"/><path class="cls-2" d="M102.51,25.48h8.88a2.43,2.43,0,0,1,2.3,2.53,2.48,2.48,0,0,1-2.3,2.53H109V44.35a3.05,3.05,0,0,1-3.22,2.85,3.13,3.13,0,0,1-3.22-2.85V30.54h-1.75A2.47,2.47,0,0,1,98.46,28a2.42,2.42,0,0,1,2.3-2.53Z"/><path class="cls-2" d="M120.25,44.35A3,3,0,0,1,117,47.2a3.15,3.15,0,0,1-3.22-2.85V28.11A3.15,3.15,0,0,1,117,25.25a3.05,3.05,0,0,1,3.22,2.86Z"/><path class="cls-2" d="M155.44,44.35a3,3,0,0,1-3.22,2.85A3.15,3.15,0,0,1,149,44.35V35.51c0-2.8-1.7-4.28-3.58-4.28s-3.64,1.25-3.64,4.37v8.75a3,3,0,0,1-3.22,2.85,3.15,3.15,0,0,1-3.22-2.85v-9c0-2.71-1.7-4.14-3.54-4.14s-3.73,1.11-3.73,4.37v8.75a3,3,0,0,1-3.22,2.85,3.15,3.15,0,0,1-3.22-2.85V28.11a3.15,3.15,0,0,1,3.22-2.86,3.05,3.05,0,0,1,3.22,2.86v.5a6.15,6.15,0,0,1,5.61-3.54c3.41,0,5.66,1.1,7.09,4.05A6.92,6.92,0,0,1,147,25c5.1,0,8.37,3.27,8.41,9.76Z"/><path class="cls-2" d="M174.21,45.45a13.51,13.51,0,0,1-7.41,1.93,10.9,10.9,0,0,1-11.22-11.22c0-6.77,5.06-11.09,11.22-11.09s11,4.51,11,11.27a2,2,0,0,1-2,2H162c.33,2.48,3,3.54,5.29,3.54a5.82,5.82,0,0,0,3.73-1,3,3,0,0,1,4,.32A2.8,2.8,0,0,1,174.21,45.45Zm-2.85-11.13a4.18,4.18,0,0,0-4.51-3.91,4.51,4.51,0,0,0-4.79,3.91Z"/><path class="cls-2" d="M178.8,39.61a2.89,2.89,0,0,1,3.45.78,5.44,5.44,0,0,0,4.05,1.89c1.42,0,2.76-.23,2.76-1.34,0-.92-.56-1.24-2.12-1.75l-2.44-.87c-6.44-2.16-6.39-5.2-6.39-7.18,0-3.17,3.81-6.12,8.32-6.12,3.08,0,6.26,1,7.73,3.55a2.28,2.28,0,0,1-.55,3.26,3.44,3.44,0,0,1-4.1-.5,4.16,4.16,0,0,0-2.57-1c-1.38,0-2.35.46-2.35,1.29s.55,1.1,1.84,1.52l3.27,1.1c5.2,1.7,5.84,5.06,5.84,6.44,0,4.56-4.78,6.72-9.29,6.72-3.45,0-7.5-1.43-8.6-4.6A2.57,2.57,0,0,1,178.8,39.61Z"/><path class="cls-2" d="M57.05,24.88A11.24,11.24,0,0,1,45.73,13.6a12,12,0,0,1,11-12.13,11.38,11.38,0,0,1,7.79,2.41c.87.52.11,3.15-.79,4A2.32,2.32,0,0,1,60.93,8,6.5,6.5,0,0,0,57.05,6.8c-3.72,0-5.92,3-5.92,6.77s2.25,6.13,6,6.13c2.54,0,4.45-.49,5.41-2.89H58.14a2,2,0,0,1-1.89-1.9c0-1.09.85-2.43,1.88-2.43l8,.17a1.7,1.7,0,0,1,1.61,2.1C67,21.78,62.92,24.88,57.05,24.88Z"/></g></g></svg>